<svg id="OBJECTS" xmlns="http://www.w3.org/2000/svg" viewBox="0 0 125.82 29.69"><defs><style>.cls-1{fill:#325234;}</style></defs><title>dRight</title><path class="cls-1" d="M197.58,79.4c2.57,2.87,3.79,6.38,4.68,10,.33,1.35-.63,2.07-1.95,1.58a8.42,8.42,0,0,1-1.35-.73,16.6,16.6,0,0,1-5.3-5.75,25,25,0,0,1-2.51-5.82c-.17-.56-.22-1.18-1-1.18l-7.6,0a.93.93,0,0,0,.36,1c2.52,3,3.51,6.52,4.16,10.22a4.9,4.9,0,0,1,.07.77,1.43,1.43,0,0,1-.85,1.4,1.19,1.19,0,0,1-1.4-.34,11.82,11.82,0,0,1-1.19-1.26,30.93,30.93,0,0,1-4.64-8.18c-.37-1-.73-1.92-1.06-2.89a1,1,0,0,0-1-.76l-8.28,0c-.27.4-.09.54,0,.69,2.28,3.39,2.82,7.25,3.09,11.19a1.6,1.6,0,0,1-1,1.86c-.76.24-1.14-.41-1.52-.93-.15-.21-.29-.42-.43-.64-2.15-3.51-4.39-7-4.62-11.28,0-.77-.41-1-1.11-.94-.38,0-.77,0-1.15,0H143.46a23.32,23.32,0,0,1-3.64-.3c-.45-.07-1-.12-1-.72a.94.94,0,0,1,.73-1,7.14,7.14,0,0,1,1.14-.19c1.15-.06,2.31-.14,3.46-.14q9.07,0,18.13.06a2.09,2.09,0,0,0,2.28-1.25,16.26,16.26,0,0,1,3.26-4.27,21.51,21.51,0,0,1,5.86-4.34c.77-.36,1.6-.71,2.34,0s.29,1.31.11,2A10.06,10.06,0,0,1,170.61,74a3.87,3.87,0,0,0-1.92,1.18c2.82,0,5.38-.06,7.95.06a2.38,2.38,0,0,0,2.63-1.62c2-4.4,5.88-6.64,10.13-8.4a1.75,1.75,0,0,1,.56-.12c1.14-.12,1.59.42,1.14,1.47-1.38,3.2-3.29,6-6.52,7.58-.46.23-1.07.35-1.4,1.2,2.25,0,4.3,0,6.35,0a1.43,1.43,0,0,0,1.43-.74c2.47-4.24,6.36-7,10.3-9.68a4.66,4.66,0,0,1,1.19-.62c1.13-.35,1.76.23,1.46,1.39-1,3.65-2.6,6.85-6,8.83-.32.19-.93.21-.83,1.1,2.48,0,5,0,7.46,0a1.89,1.89,0,0,0,2-1.15,16.25,16.25,0,0,1,3.39-4.18A43.9,43.9,0,0,1,219,64.27a3.67,3.67,0,0,1,.72-.27,1.31,1.31,0,0,1,1.43.3c.3.38.09.86-.12,1.27-.51,1-1,1.93-1.53,2.91a15.8,15.8,0,0,1-6.18,6.7c-.26.15-.63.24-.48.73l8.42.47a1.07,1.07,0,0,0,1.24-.64,13.16,13.16,0,0,1,4.21-4.69,67.14,67.14,0,0,1,11.3-7,3,3,0,0,1,.9-.33c1.1-.16,1.54.45,1.09,1.5a3.46,3.46,0,0,1-.27.5C237,70,234.07,73.91,229.51,76.3a.42.42,0,0,0-.24.5c4.27.41,8.55.81,12.83,1.24a4.38,4.38,0,0,0,1.86-.36,17.48,17.48,0,0,1,7.77-1.07c4.23.57,8.18,2.16,12.11,3.74.43.17.89.36.82.93a1.36,1.36,0,0,1-.82,1,4.4,4.4,0,0,1-1.68.4c-1.28.07-2.57.19-3.85.21-4.32,0-8.66,0-12.78-1.44a40.16,40.16,0,0,0-13.7-2.59c-.67,0-1.34,0-2,0a.78.78,0,0,0,.44.68c3.8,2.78,6,6.83,8.37,10.7a1,1,0,0,1,0,1.4,1.15,1.15,0,0,1-1.38.39l-1.06-.46a32.45,32.45,0,0,1-7.71-5.07c-2.38-2.14-4.78-4.33-5.91-7.48-.27-.74-.84-.67-1.41-.69-2.63-.13-5.26-.27-7.9-.36a7,7,0,0,0-2.3.1,4.45,4.45,0,0,0,.37.61,26,26,0,0,1,6,11.7,5.53,5.53,0,0,1,.25,1.71,1.37,1.37,0,0,1-2.1,1.14,6.12,6.12,0,0,1-.91-.7c-4-3.32-6.38-7.67-8-12.47-.79-2.24-.75-2.25-3.08-2.32-.38,0-.77,0-1.15,0l-6,0C196.47,78.55,197.13,78.9,197.58,79.4Zm39-12.71c-4.58,2.58-9.22,5.09-12.31,9.58C230.15,75.32,233.55,71.22,236.6,66.69ZM244.22,79c2.28,1.72,10.66,2.52,16.23,1.94C255.23,78.78,250,76.91,244.22,79Zm-51.47-1c1.37,4.37,3.3,8.37,7.46,10.82C199,84.34,197,80.42,192.75,78Zm14.88-2.64c3.12.47,8.45-4.06,10.32-8.87C213.76,69,210.25,71.61,207.63,75.39Zm27.57,13.4c-2.54-4.15-5.52-7.83-10.27-9.6C227.29,83.56,231,86.5,235.2,88.79ZM215.29,91c-.32-3.85-4.09-10.18-7.15-12A24.93,24.93,0,0,0,215.29,91ZM201,66.94A34.91,34.91,0,0,0,192.4,75C195.86,74.47,200.64,70.93,201,66.94Zm-34.31,6.72c3.4-1.09,6.23-2.8,7.08-6.61A21.13,21.13,0,0,0,166.69,73.66Zm14.43.19a11.67,11.67,0,0,0,7.1-6.36A13.44,13.44,0,0,0,181.12,73.85ZM185,88.33a13.8,13.8,0,0,0-5.11-9.77A35.36,35.36,0,0,0,185,88.33ZM166.08,78.26a18.17,18.17,0,0,0,3.64,8.83C169.39,83.79,168.56,80.69,166.08,78.26Z" transform="translate(-138.85 -63.74)"/></svg>