<svg id="Layer_1" data-name="Layer 1" xmlns="http://www.w3.org/2000/svg" viewBox="0 0 2158.57 570.92"><defs><style>.cls-1{fill:#fff;}</style></defs><title>marca_w</title><path class="cls-1" d="M145.52,662.93c19.95,0,39.42,7,50.16,24.77,8.58,14.18,17.62,44.17-7.42,44.17-28.08,0-34.53-10.63-41.28-35.45-6.41-23.59-37.31-10.5-46.38,2.74-22.58,33-16,84.94,1.78,118.26,10.19,19.06,26.74,36.3,47.41,43.84,33.62,12.25,55.65-10.42,87-10.42,0,24.38-58.49,51-78.68,51-37.27,0-69.73-19.14-87.71-52C36,787.06,54.47,662.93,145.52,662.93Z" transform="translate(-54.26 -425.7)"/><path class="cls-1" d="M436.86,664.88c21,18,6.49,118.32,7.27,144,.57,18.77-.61,41.41,5.16,59.56,3,9.25,23.91,19.18,17.68,27.12a262.82,262.82,0,0,1-55.59-.24c-13.2-1.45-6.11-10.39-10.45-19.18-29-9.69-52.51,36.78-89,22.17C272.74,882.6,256.23,833.85,256.23,795c0-43.85,24.49-86.67,60.81-110.77C354.57,659.3,395.31,672.8,436.86,664.88ZM299.93,765.37c0,33.86,5.48,82.53,41.76,98,14.2,6.07,30.79,5.35,45.41,1.27,25.11-7,12.09-39.87,11.48-59.83-.76-24.41,14.53-112.84-20.23-119.6C330.36,676,299.93,721.15,299.93,765.37Z" transform="translate(-54.26 -425.7)"/><path class="cls-1" d="M551.45,653.71c19.15,0-14.21,47,18.14,39.62,30-6.86,62.19-36.35,94.52-26.21,12.51,3.93,24.89,31.94,37.4,25.67,20.85-10.34,47-21.06,70-25.25,87.85-16,59.14,94.08,52.54,141.05-3.74,26.7-9.15,64.72,15.54,82.56,9.88,7.22-59.85,5.23-68.22,4.36,0-20.43,12.37-45.12,14.33-66.77,2.48-27.25,4.26-54.68,4.85-82,1.12-54-49.87-62.49-93.24-38.36-15.17,8.44-7,50.91-7,66.71,0,41.45-8,86.23,21.85,119-7.42,4.6-84.48,5.58-84.48.46,0-11.19,21.85-22.06,21.85-40.28,0-36.63,1-74.55-1.45-111-3.23-48-91.3-63.86-91.3-19.81V857.34c0,18.23,12.75,23.78,18,38.17-26.48,5.16-57.58.18-84.5,0,13.11-17,24.3-25.58,24.3-49.28V780.76c0-23.14,5.12-57.45-6.32-78.5,1.67,3.09-30.08-28.9-14.1-20.89a95.11,95.11,0,0,0,29.8-8.62C528.87,670.37,545.29,653.71,551.45,653.71Z" transform="translate(-54.26 -425.7)"/><path class="cls-1" d="M913.22,655.65c6.13-2.32,9.12-6.36,16-7.3-4.94,51.55,27.54,21.36,60.46,13.36,71.75-17.45,97.32,65.52,86.5,121-10.46,53.59-54.58,93.39-101,117.72-15.3,8-34.67,14-40.67,29.57,0,26.77,8.67,44,23.31,61.17-13,3.53-68.63,9.19-78.18,1.93-6,0,10.68-34,10.68-44.66-5.94-11.86-19.4,5.65-23.78-3.4-6.38-13.14,24.26-9.25,24.26-23.8,0-27.83,0-55.7-.45-83.54-.53-32.79-1.31-65.63-3.59-98.36-2.12-30.39-4.59-38.4-25.08-59,15-13.14,36.67-7.36,51.48-24.74C915.78,654.66,907.7,662.12,913.22,655.65Zm17.95,48.07c0,38.63.62,77.23,1.39,115.88.53,25.57-5.43,59.82,4,84.16,15.33,7.62,41.94-24.56,50.49-33.25,30.57-31.09,54.49-79.85,45.88-124.55-4.05-21.11-17.25-41.05-36.41-51.22C982.64,687.37,938.14,682.92,931.17,703.72Z" transform="translate(-54.26 -425.7)"/><path class="cls-1" d="M1202.6,660.49c138.25,0,147.46,214.77,17.41,236.2C1072.28,921.06,1056.63,660.49,1202.6,660.49Zm-83,84.63c0,46.53,36.45,97.36,79.69,113.85,40.9,15.61,86.85-2.82,91.89-49.13,5.12-46.94-30.08-87.06-70.59-106.35C1187.24,687.63,1119.58,696.42,1119.58,745.12Z" transform="translate(-54.26 -425.7)"/><path class="cls-1" d="M1473,644.47c11.52,0,36.07,89.51,40.6,101.19,7.89,20.36,25.24,94.64,46.31,105.18,28.31-27.58,54.37-73.72,39.82-114.35-7.08-19.75-21-34.87-18.19-57,2.35-18.81,24.68-31.32,39.08-15.3,28.07,31.34,11.76,89.58-3.65,121.87-10.89,22.85-25.16,43.86-39.94,64.34-14.37,19.93-6.72,25.64,10.1,40.31-12,0-87.16,7.47-90.33-1.21-2-5.41,13.21-12.65,15-20.65-2.12-15.83-7.33-31.59-12.23-46.75a819.18,819.18,0,0,0-37-93.81,265.92,265.92,0,0,0-16.77-31.09c-2.46-3.83-21.35-18.22-21.35-22.57C1436.79,669.51,1460.71,644.47,1473,644.47Z" transform="translate(-54.26 -425.7)"/><path class="cls-1" d="M1735.71,652.72c1.93,56,1.47,112,1.47,168,0,34.31,3.7,48.71,27.19,71.39-28.92,5.26-64.36,4.46-93.23,0,5-9.11,17.11-9.59,20.57-20.35,4.19-13,4.25-27.6,4.54-41.14.63-28.09-.45-56.17-2-84.2-.82-13.81-1.5-27.89-4.13-41.5-1-5.28-20.7-23.91-21.36-22.1,0-1.64,63-30.11,67-30.11C1736.69,680.89,1734.1,652.72,1735.71,652.72Z" transform="translate(-54.26 -425.7)"/><path class="cls-1" d="M1817.76,644.47c11.51,0,36.07,89.51,40.6,101.19,7.91,20.36,25.21,94.64,46.32,105.18,28.3-27.58,54.37-73.72,39.82-114.35-7.08-19.75-21-34.86-18.21-57,2.35-18.81,24.69-31.32,39.08-15.3,28.07,31.33,11.76,89.58-3.62,121.87-10.93,22.85-25.17,43.86-40,64.34-14.38,19.93-6.73,25.64,10.08,40.31-12,0-87.17,7.47-90.32-1.21-2-5.38,13.21-12.66,15.06-20.65-2.14-15.83-7.36-31.59-12.25-46.75a817.4,817.4,0,0,0-37-93.81,265.78,265.78,0,0,0-16.75-31.09c-2.47-3.83-21.37-18.23-21.37-22.57C1781.55,669.51,1805.45,644.47,1817.76,644.47Z" transform="translate(-54.26 -425.7)"/><path class="cls-1" d="M2103.29,660.49c138.22,0,147.43,214.77,17.38,236.2C1972.94,921.05,1957.28,660.49,2103.29,660.49Zm-83.06,84.63c0,46.53,36.48,97.36,79.7,113.85,40.93,15.61,86.84-2.82,91.92-49.13,5.11-46.94-30.09-87.06-70.61-106.35C2087.93,687.65,2020.23,696.42,2020.23,745.12Z" transform="translate(-54.26 -425.7)"/><path class="cls-1" d="M63.75,569.19V562H66a22.18,22.18,0,0,0,9.73-2q4.14-2,4.15-9.56V465.05q0-7.59-4.15-9.66A21.5,21.5,0,0,0,66,453.32h-2.2v-7.24H149l.85,30.17h-8.8l-.85-7.41a18.48,18.48,0,0,0-4.14-10q-3.47-4.14-11.42-4.14H96.91v49.83h40.78V513H96.91v36.55q0,8.12,4.06,10.26a20.67,20.67,0,0,0,9.82,2.16h5.58v7.24Z" transform="translate(-54.26 -425.7)"/><path class="cls-1" d="M145.3,569.19V562h3.21c3.27,0,5.73-.86,7.36-2.59s3.47-5.34,5.5-10.86l37.56-102.42h13.2l38.23,106.73c1.24,3.56,2.73,6,4.48,7.24s4.26,1.9,7.53,1.9h2.2v7.24H218.05V562h3.89q10.14,0,10.15-8.28a14.11,14.11,0,0,0-.34-2.93,30.1,30.1,0,0,0-1-3.45L224,528h-44.5L173,546.09a21.84,21.84,0,0,0-1.52,7.41q0,8.44,11.17,8.45h3.89v7.24Zm37.39-49.83h38.23l-10.49-30.17q-2.7-7.59-4.9-14.32A133.32,133.32,0,0,1,202,461.94a96.29,96.29,0,0,1-3,11.9q-1.86,5.69-4.74,13.79Z" transform="translate(-54.26 -425.7)"/><path class="cls-1" d="M270.66,569.19v-6.9L334.1,454.7H297.39q-7.45,0-10.32,4.22a21.93,21.93,0,0,0-3.55,9.92l-.85,7.41h-8.8l.85-30.17h80.19v7.07L291.3,560.57h42.63q7.62,0,10.49-4.23a21.85,21.85,0,0,0,3.55-9.91l.85-7.41h8.8l-.85,30.17Z" transform="translate(-54.26 -425.7)"/><path class="cls-1" d="M371.15,569.19V562h2.2a22.24,22.24,0,0,0,9.73-2q4.14-2,4.14-9.56V465.74q0-8.12-4.06-10.26a20.66,20.66,0,0,0-9.81-2.16h-2.2v-7.24h85.27l.84,30.17h-8.8l-.84-7.41a19.55,19.55,0,0,0-4-9.92q-3.3-4.21-10.91-4.22H404.31v45.86h40.77V509H404.31v51.56H437q7.95,0,11.59-4.23a19.18,19.18,0,0,0,4.48-9.91l1.19-7.41H463l-1.18,30.17Z" transform="translate(-54.26 -425.7)"/><path class="cls-1" d="M476.54,569.19V562h2.2a20.67,20.67,0,0,0,9.82-2.16q4.05-2.14,4.06-10.26V465.05q0-7.59-4.15-9.66a21.5,21.5,0,0,0-9.73-2.07h-2.2v-7.24h31l60.57,95.35V465.05q0-7.59-4.14-9.66a21.56,21.56,0,0,0-9.73-2.07H552v-7.24h42.46v7.24h-2.2a20.66,20.66,0,0,0-9.81,2.16q-4.07,2.14-4.06,10.26V569.19h-12l-63.44-99.32v79.66q0,8.12,4.06,10.26a20.6,20.6,0,0,0,9.81,2.16H519v7.24Z" transform="translate(-54.26 -425.7)"/><path class="cls-1" d="M605.63,569.19V562h2.19a20.67,20.67,0,0,0,9.82-2.16q4.05-2.14,4.06-10.26V465.05q0-7.59-4.15-9.66a21.5,21.5,0,0,0-9.73-2.07h-2.19v-7.24h51.76q26.05,0,40.61,16t14.55,45.35q0,19-6.18,32.76a47,47,0,0,1-18.44,21.38q-12.27,7.59-30.54,7.59Zm33.15-8.79H653.5q20.13,0,30.2-13.71t10.07-39.23q0-25.51-10.07-39.14t-30-13.62H638.78Z" transform="translate(-54.26 -425.7)"/><path class="cls-1" d="M718.81,569.19V562H722q4.9,0,7.36-2.59t5.5-10.86l37.56-102.42h13.19l38.24,106.73c1.24,3.56,2.73,6,4.48,7.24s4.25,1.9,7.53,1.9h2.2v7.24H791.55V562h3.89q10.15,0,10.15-8.28a14.07,14.07,0,0,0-.33-2.93,30.1,30.1,0,0,0-1-3.45L797.47,528H753l-6.43,18.11A21.84,21.84,0,0,0,745,553.5q0,8.44,11.16,8.45h3.9v7.24Zm37.38-49.83h38.24l-10.49-30.17q-2.72-7.59-4.91-14.32a133.17,133.17,0,0,1-3.55-12.93,96.29,96.29,0,0,1-3,11.9q-1.87,5.69-4.74,13.79Z" transform="translate(-54.26 -425.7)"/><path class="cls-1" d="M1659.88,552.22c-27.47-11-50-30-74.49-46.11C1530.72,470,1470.23,440.9,1405.19,430c-154.53-25.78-268.57,69.65-398.91,132.54-78.81,38-155.66,28.69-241.2,28.15q-212.15-1.28-424.26-2.66-133-.85-266-1.72c-20.31-.13-26.75,26.94-2.57,26.79q42.87-.23,85.77-.5c233.92-1.41,482.22,6.07,741.12-4.46,143.68-5.83,249.47-136.73,388.79-165.33,81.14-16.67,165.64-.19,238.43,38.16,35.52,17.58,66.11,41.71,99.82,62,13.2,7.94,22.54,17.29,35.06,9.74C1660.79,552.57,1660.33,552.41,1659.88,552.22Z" transform="translate(-54.26 -425.7)"/><path class="cls-1" d="M2103.17,602.11c-130.18,1.22-251.47-2.7-354.9-24.51,9.48,18.44,70.71,16,90.17,17.86,47.22,4.62,94.62,6.89,142.06,7.91,72.32,1.53,144.95.65,217.18-3.84,0,0-34.33,1.89-94.51,2.58C2073.11,602.38,2163.35,601.42,2103.17,602.11Z" transform="translate(-54.26 -425.7)"/><path class="cls-1" d="M1730.86,609c0,50-75.49,50-75.49,0C1655.37,549,1730.86,549,1730.86,609Z" transform="translate(-54.26 -425.7)"/></svg>